<svg width="25" height="25" viewBox="0 0 20 20" fill="none" xmlns="http://www.w3.org/2000/svg">
<path d="M7.56 7.00035L5.56 5.00035L1.41 0.860352L0 2.27035L2.73 5.00035H2C1.45 5.00035 1 5.45035 1 6.00035V16.0004C1 16.5504 1.45 17.0004 2 17.0004H14C14.21 17.0004 14.39 16.9204 14.55 16.8204L17.73 20.0004L19.14 18.5904L10.28 9.73035L7.56 7.00035ZM3 15.0004V7.00035H4.73L12.73 15.0004H3ZM13 7.00035V9.61035L19 15.6104V5.50035L15 9.50035V6.00035C15 5.45035 14.55 5.00035 14 5.00035H8.39L10.39 7.00035H13Z" fill="white"/>
</svg>
