<svg width="130" height="35" viewBox="0 0 130 35" fill="none" xmlns="http://www.w3.org/2000/svg">
<path d="M13.0011 14.4453C13.3009 14.4453 13.4543 14.5941 13.4543 14.885V16.9277C13.4543 17.2185 13.3009 17.3673 13.0011 17.3673H6.3228C5.78603 17.3673 5.34685 17.4147 4.99132 17.5026C4.64276 17.5905 4.35695 17.7393 4.14781 17.9422C3.93868 18.1452 3.79229 18.4225 3.70863 18.7674C3.62498 19.1192 3.58315 19.5453 3.58315 20.0458V27.2764C3.58315 27.6349 3.4019 27.8107 3.03244 27.8107H0.578603C0.195191 27.8107 0 27.6349 0 27.2764V19.3897C0 18.5104 0.0975956 17.7596 0.299758 17.1373C0.50192 16.5151 0.829563 16.001 1.28966 15.6019C1.74975 15.2029 2.36321 14.912 3.12306 14.7226C3.88291 14.5332 4.83098 14.4453 5.97425 14.4453H13.0011V14.4453Z" fill="white"/>
<path d="M28.2331 14.4453C29.0835 14.4453 29.7946 14.513 30.3523 14.655C30.91 14.7903 31.3561 15.0202 31.6838 15.3381C32.0114 15.656 32.2415 16.0686 32.3739 16.5827C32.5064 17.0968 32.5761 17.7123 32.5761 18.4428V20.756C32.5761 21.2768 32.4576 21.6353 32.2275 21.8382C31.9905 22.0411 31.635 22.1426 31.147 22.1426H18.4735V22.7243C18.4735 23.4886 18.6617 24.0365 19.0382 24.3814C19.4146 24.7264 20.1466 24.8955 21.2341 24.8955H31.6977C31.9975 24.8955 32.1508 25.0443 32.1508 25.3352V27.3778C32.1508 27.6687 31.9975 27.8175 31.6977 27.8175H20.8785C19.7423 27.8175 18.7942 27.7296 18.0274 27.5469C17.2675 27.3711 16.654 27.0802 16.194 26.6812C15.7339 26.2821 15.4062 25.7748 15.2041 25.1458C15.0019 24.5235 14.9043 23.7727 14.9043 22.8934V19.3897C14.9043 18.5104 15.0019 17.7596 15.2041 17.1373C15.4062 16.5151 15.7339 16.001 16.194 15.6019C16.654 15.2029 17.2675 14.912 18.0274 14.7226C18.7872 14.5332 19.7353 14.4453 20.8785 14.4453H28.2331V14.4453ZM18.4735 19.9714H28.6374C28.9232 19.9714 29.0626 19.8361 29.0626 19.5588V18.5375C29.0626 18.0369 28.9511 17.6784 28.735 17.4688C28.5189 17.2591 28.1146 17.1509 27.529 17.1509H21.2271C20.1396 17.1509 19.4076 17.32 19.0312 17.6514C18.6548 17.9828 18.4665 18.5375 18.4665 19.3221V19.9782L18.4735 19.9714Z" fill="white"/>
<path d="M48.357 14.4443C49.4794 14.4443 50.4205 14.539 51.1943 14.7217C51.9611 14.911 52.5815 15.2019 53.0416 15.601C53.5017 16 53.8294 16.5073 54.0315 17.1364C54.2337 17.7654 54.3313 18.5094 54.3313 19.3887V27.2754C54.3313 27.6339 54.15 27.8098 53.7806 27.8098H51.3198C50.9503 27.8098 50.7691 27.6339 50.7691 27.2754V20.2139C50.7691 19.7134 50.7342 19.2873 50.6715 18.9355C50.6017 18.5838 50.4763 18.3133 50.2811 18.1104C50.0859 17.9074 49.828 17.7586 49.4933 17.6707C49.1587 17.5828 48.7265 17.5354 48.1897 17.5354H41.5114C40.9746 17.5354 40.5355 17.5828 40.1799 17.6707C39.8244 17.7586 39.5456 17.9074 39.3364 18.1104C39.1273 18.3133 38.9809 18.5906 38.8972 18.9355C38.8136 19.2873 38.7718 19.7134 38.7718 20.2139V27.2754C38.7718 27.6339 38.5905 27.8098 38.221 27.8098H35.7602C35.3768 27.8098 35.1816 27.6339 35.1816 27.2754V19.3887C35.1816 18.5094 35.2792 17.7586 35.4814 17.1364C35.6836 16.5141 36.0112 16 36.4713 15.601C36.9314 15.2019 37.5448 14.911 38.3047 14.7217C39.0646 14.5323 40.0126 14.4443 41.1559 14.4443H48.357V14.4443Z" fill="white"/>
<path d="M104.428 14.4443C105.279 14.4443 105.99 14.512 106.548 14.654C107.105 14.7893 107.551 15.0193 107.879 15.3372C108.207 15.6551 108.437 16.0677 108.569 16.5817C108.702 17.0958 108.771 17.7113 108.771 18.4418V20.755C108.771 21.2759 108.653 21.6343 108.423 21.8373C108.193 22.0402 107.83 22.1416 107.342 22.1416H94.6688V22.7233C94.6688 23.4876 94.857 24.0355 95.2335 24.3805C95.6099 24.7254 96.3419 24.8945 97.4294 24.8945H107.893C108.193 24.8945 108.346 25.0433 108.346 25.3342V27.3769C108.346 27.6677 108.193 27.8165 107.893 27.8165H97.0739C95.9376 27.8165 94.9895 27.7286 94.2227 27.546C93.4628 27.3701 92.8494 27.0793 92.3893 26.6802C91.9292 26.2811 91.6015 25.7738 91.3994 25.1448C91.1972 24.5225 91.0996 23.7717 91.0996 22.8924V19.3887C91.0996 18.5094 91.1972 17.7586 91.3994 17.1364C91.6015 16.5141 91.9292 16 92.3893 15.601C92.8494 15.2019 93.4628 14.911 94.2227 14.7217C94.9825 14.5323 95.9306 14.4443 97.0739 14.4443H104.428V14.4443ZM94.6688 19.9704H104.833C105.119 19.9704 105.258 19.8351 105.258 19.5578V18.5365C105.258 18.036 105.146 17.6775 104.93 17.4678C104.714 17.2581 104.31 17.1499 103.724 17.1499H97.4224C96.3349 17.1499 95.6029 17.319 95.2265 17.6504C94.8501 17.9818 94.6618 18.5365 94.6618 19.3211V19.9772L94.6688 19.9704Z" fill="white"/>
<path d="M113.136 14.4443C113.422 14.4443 113.624 14.5592 113.735 14.7825L119.633 24.8403C119.703 24.935 119.793 24.9891 119.912 24.9891H120.009C120.128 24.9891 120.219 24.9418 120.288 24.8403L126.214 14.7825C126.283 14.6675 126.353 14.5863 126.437 14.5254C126.52 14.4713 126.646 14.4375 126.813 14.4375H129.602C129.783 14.4375 129.908 14.4984 129.964 14.6201C130.02 14.7419 130.013 14.8839 129.929 15.0462L123.056 26.7072C122.819 27.113 122.554 27.3971 122.254 27.5594C121.954 27.7218 121.515 27.8029 120.951 27.8029H118.894C118.343 27.8029 117.918 27.7218 117.611 27.5594C117.312 27.3971 117.04 27.113 116.81 26.7072L109.936 15.0462C109.852 14.8839 109.839 14.7419 109.901 14.6201C109.964 14.4984 110.083 14.4375 110.264 14.4375H113.15L113.136 14.4443Z" fill="white"/>
<path d="M89.413 32.2608C89.6082 31.51 89.5245 30.8404 89.3642 30.1708C89.1132 29.1697 88.6322 28.1213 87.956 26.9444C87.2868 25.7743 86.4224 24.4824 85.3906 23.1026L85.1397 23.948C84.7353 24.807 84.2404 25.6255 83.6548 26.4101C84.7772 27.9928 85.2024 28.9939 85.6416 30.0152C85.774 30.3128 85.8716 30.5834 85.9344 30.8066C85.307 30.6375 84.3519 30.2181 83.2296 29.5823C82.5882 29.2239 81.8911 28.791 81.1522 28.2972C81.3683 28.1146 81.5774 27.9252 81.7866 27.729C82.3373 27.1947 82.8183 26.6198 83.2644 26.0245C83.85 25.2399 84.345 24.4215 84.7493 23.5625C87.231 18.2934 86.255 11.861 81.7866 7.51858C77.1299 3.00031 70.1309 2.1413 64.5819 4.94154C63.9335 5.26621 63.3131 5.65851 62.7136 6.08464C62.1001 6.51753 61.5146 6.98423 60.9638 7.51858C60.7617 7.71473 60.5665 7.91765 60.3783 8.12733C60.2737 7.97176 60.1482 7.81619 60.0506 7.66062C58.9701 6.08464 58.2312 4.7251 57.8966 3.81198C57.8547 3.69023 57.8199 3.582 57.785 3.48055C57.8408 3.49407 57.8896 3.5076 57.9453 3.52789C58.517 3.70375 59.3187 4.05547 60.2458 4.56953C60.9848 4.97536 61.0126 4.99565 61.9049 5.59764C62.5045 5.17151 63.1249 4.77921 63.7732 4.45454L65.4184 3.79845C63.3131 2.33745 61.4449 1.24847 59.8345 0.605898C59.0189 0.287995 58.273 0.0647875 57.4853 0.0106765C57.0949 -0.016379 56.6836 0.00391263 56.2514 0.118899C55.8261 0.233884 55.373 0.457092 55.0175 0.808814C54.6968 1.11319 54.4807 1.49197 54.3552 1.86398C54.1252 2.56742 54.167 3.20323 54.2855 3.8255C54.5016 4.90772 55.0035 6.017 55.7216 7.28861C56.7951 9.18249 58.3845 11.3943 60.3852 13.7955C62.379 16.1966 64.784 18.794 67.4749 21.4048C71.8527 25.6525 76.1748 29.1562 79.7022 31.4289C81.4798 32.5652 83.0414 33.4039 84.4356 33.8842C85.1397 34.1209 85.8019 34.2832 86.506 34.29C86.8615 34.29 87.231 34.2494 87.6144 34.1277C87.9978 34.0059 88.3882 33.7895 88.7019 33.4851C89.0714 33.1334 89.3084 32.6802 89.4199 32.2608H89.413ZM69.9287 19.0104C67.0357 16.2034 64.5052 13.4234 62.4905 10.9343C62.7763 10.5826 63.0761 10.2377 63.4107 9.91299C65.6066 7.78237 68.4787 6.72044 71.3578 6.72044C74.2368 6.72044 77.1089 7.78237 79.3049 9.91299C81.5008 12.0436 82.5952 14.8303 82.5952 17.6238C82.5952 20.4173 81.5008 23.204 79.3049 25.3346C78.9702 25.6593 78.6147 25.9569 78.2522 26.2275C77.8967 25.9569 77.5342 25.6796 77.1647 25.3887C74.8852 23.5895 72.4174 21.4251 69.9287 19.0104V19.0104Z" fill="url(#paint0_linear_0_1)"/>
<path d="M67.2234 28.2626C67.8009 28.2626 68.2691 27.8083 68.2691 27.248C68.2691 26.6876 67.8009 26.2334 67.2234 26.2334C66.6459 26.2334 66.1777 26.6876 66.1777 27.248C66.1777 27.8083 66.6459 28.2626 67.2234 28.2626Z" fill="#77C3E7"/>
<path d="M61.8978 26.5449C63.4378 26.5449 64.6863 25.3336 64.6863 23.8393C64.6863 22.3451 63.4378 21.1338 61.8978 21.1338C60.3578 21.1338 59.1094 22.3451 59.1094 23.8393C59.1094 25.3336 60.3578 26.5449 61.8978 26.5449Z" fill="#AE97E3"/>
<defs>
<linearGradient id="paint0_linear_0_1" x1="54.1809" y1="17.1503" x2="89.5245" y2="17.1503" gradientUnits="userSpaceOnUse">
<stop stop-color="#AE97E3"/>
<stop offset="1" stop-color="#77C3E7"/>
</linearGradient>
</defs>
</svg>
